<svg width="47" height="17" viewBox="0 0 47 17" fill="none" xmlns="http://www.w3.org/2000/svg">
<path d="M45.4416 16.9293C44.4347 16.9293 43.8594 16.3171 43.8594 15.5401C43.8594 14.7631 44.4347 14.1509 45.4416 14.1509C46.4484 14.1509 46.9998 14.7631 46.9998 15.5401C46.9998 16.3171 46.4484 16.9293 45.4416 16.9293Z" fill="#0B1D12"/>
<path d="M44.1816 16.7645H41.3528L38.1884 12.4086L35.0001 16.7645H32.1953L36.7261 10.4543L32.435 4.61499H35.2398L38.1884 8.66483L41.1131 4.61499H43.9419L39.6508 10.4543L44.1816 16.7645Z" fill="#0B1D12"/>
<path d="M26.1888 17.0001C23.3121 17.0001 21.7539 15.5873 21.7539 13.327C21.7539 11.5139 22.8806 10.0777 25.9491 9.81866L28.3464 9.6303C29.8087 9.48902 30.2402 9.15939 30.2402 8.38238C30.2402 6.99319 29.4251 6.1691 27.6272 6.1691C25.9491 6.1691 25.0381 6.87547 24.9183 8.38238H22.4251C22.4251 5.93365 23.9594 4.37964 27.6032 4.37964C31.2231 4.37964 32.7813 5.93365 32.7813 8.38238V13.6566C32.7813 15.3048 32.9251 16.3643 33.1648 16.7646H30.8874C30.5039 16.2937 30.36 15.7992 30.36 14.669C29.6888 16.2231 28.3224 17.0001 26.1888 17.0001ZM26.884 15.2812C29.0655 15.2812 30.2402 13.6095 30.2402 11.6081V10.5721C29.9765 10.9018 29.3053 11.0901 28.3464 11.1608L26.7642 11.302C24.9902 11.4433 24.295 12.1732 24.295 13.1621C24.295 14.41 25.0621 15.2812 26.884 15.2812Z" fill="#0B1D12"/>
<path d="M21.2725 16.7644H18.7314V0H21.2725V16.7644Z" fill="#0B1D12"/>
<path d="M12.4353 17.0001C8.50377 17.0001 6.32227 14.5513 6.32227 10.6898C6.32227 6.9461 8.3839 4.37964 12.2914 4.37964C16.199 4.37964 18.2606 6.99319 18.2606 10.4779C18.2606 10.7134 18.2366 10.9253 18.2126 11.1608H8.86335C8.93527 14.0333 10.3257 15.2812 12.4353 15.2812C14.1853 15.2812 15.288 14.3865 15.6716 12.9973H17.9969C17.4455 15.4696 15.6476 17.0001 12.4353 17.0001ZM12.2914 6.09846C10.3736 6.09846 9.12705 7.22865 8.86335 9.51257H15.7195C15.4558 7.22865 14.2092 6.09846 12.2914 6.09846Z" fill="#0B1D12"/>
<path d="M2.54109 16.7645H0V8.42542L2.42123 4.61497V7.41689C3.06848 5.27424 4.17122 4.47369 5.96916 4.47369C6.30478 4.47369 6.78423 4.54433 7.09587 4.61497V6.8047L5.87327 6.75761C3.85958 6.75761 2.54109 8.28807 2.54109 10.9958V16.7645Z" fill="#0B1D12"/>
</svg>
