<svg width="79" height="24" viewBox="0 0 79 24" fill="none" xmlns="http://www.w3.org/2000/svg">
<path d="M4.24 19.2C1.78 19.2 0.48 17.98 0.48 16.08C0.48 14.48 1.4 13.18 4.04 12.96L6.24 12.78C7.1 12.7 7.34 12.44 7.34 12C7.34 11.12 6.8 10.62 5.76 10.62C4.74 10.62 4.18 11.08 4.08 12H1.04C1.04 9.86 2.4 8.48 5.72 8.48C9.04 8.48 10.4 9.86 10.4 12V16.36C10.4 17.76 10.52 18.66 10.72 19H7.94C7.66 18.64 7.5 18.24 7.5 17.56C6.92 18.64 5.96 19.2 4.24 19.2ZM5.14 17.16C6.54 17.16 7.34 16.1 7.34 14.84V14.26C7.2 14.42 6.8 14.52 6.24 14.58L5.12 14.66C3.98 14.76 3.54 15.22 3.54 15.86C3.54 16.64 4.02 17.16 5.14 17.16ZM15.3737 19.12C12.8537 19.12 12.0537 18.32 12.0537 15.86V10.82H10.4937V8.68H12.0537V5.56H15.0938V8.68H17.2138V10.82H15.0938V15.98C15.0938 16.7 15.4138 16.96 16.1338 16.96H17.2138V19C16.7538 19.04 15.8538 19.12 15.3737 19.12ZM22.0152 19.12C19.4952 19.12 18.6952 18.32 18.6952 15.86V10.82H17.1352V8.68H18.6952V5.56H21.7352V8.68H23.8552V10.82H21.7352V15.98C21.7352 16.7 22.0552 16.96 22.7752 16.96H23.8552V19C23.3952 19.04 22.4952 19.12 22.0152 19.12ZM27.5166 19H24.4566V8.68H27.3566V10.9C27.8766 9.1 28.7766 8.54 30.1366 8.54C30.4166 8.54 30.8966 8.6 31.0966 8.68V11.34L30.0166 11.32C28.4966 11.32 27.5166 12.4 27.5166 14.28V19ZM34.458 19.2C31.998 19.2 30.698 17.98 30.698 16.08C30.698 14.48 31.618 13.18 34.258 12.96L36.458 12.78C37.318 12.7 37.558 12.44 37.558 12C37.558 11.12 37.018 10.62 35.978 10.62C34.958 10.62 34.398 11.08 34.298 12H31.258C31.258 9.86 32.618 8.48 35.938 8.48C39.258 8.48 40.618 9.86 40.618 12V16.36C40.618 17.76 40.738 18.66 40.938 19H38.158C37.878 18.64 37.718 18.24 37.718 17.56C37.138 18.64 36.178 19.2 34.458 19.2ZM35.358 17.16C36.758 17.16 37.558 16.1 37.558 14.84V14.26C37.418 14.42 37.018 14.52 36.458 14.58L35.338 14.66C34.198 14.76 33.758 15.22 33.758 15.86C33.758 16.64 34.238 17.16 35.358 17.16ZM46.547 19.2C43.127 19.2 41.187 17.06 41.187 13.84C41.187 10.62 43.127 8.48 46.547 8.48C49.987 8.48 51.587 10.58 51.587 12.72H48.707C48.547 11.58 47.907 10.78 46.547 10.78C45.087 10.78 44.247 11.76 44.247 13.84C44.247 15.92 45.087 16.9 46.547 16.9C47.707 16.9 48.527 16.32 48.707 14.88H51.587C51.587 17.22 49.867 19.2 46.547 19.2ZM56.1394 19.12C53.6194 19.12 52.8194 18.32 52.8194 15.86V10.82H51.2594V8.68H52.8194V5.56H55.8594V8.68H57.9794V10.82H55.8594V15.98C55.8594 16.7 56.1794 16.96 56.8994 16.96H57.9794V19C57.5194 19.04 56.6194 19.12 56.1394 19.12ZM63.0808 19.2C59.6808 19.2 58.1808 17.78 58.1808 15.68H61.1608C61.2808 16.68 61.7608 17.22 63.1208 17.22C64.4008 17.22 64.9208 16.72 64.9208 16.08C64.9208 15.5 64.4408 15.18 63.6208 15.06L61.9808 14.84C59.3808 14.46 58.4608 13.6 58.4608 11.8C58.4608 9.9 59.8608 8.48 63.0808 8.48C66.3008 8.48 67.7008 9.9 67.7008 11.84H64.7208C64.6208 11.08 64.3208 10.46 63.0408 10.46C61.9408 10.46 61.5208 10.9 61.5208 11.54C61.5208 12.1 61.8208 12.36 62.5008 12.46L64.1208 12.68C66.5808 13.04 67.9808 13.8 67.9808 15.88C67.9808 17.78 66.4808 19.2 63.0808 19.2Z" fill="#0B1D12"/>
<path fill-rule="evenodd" clip-rule="evenodd" d="M74.6482 18.5386C76.364 18.5386 77.7548 17.1922 77.7548 15.5314C77.7548 13.8706 76.364 12.5243 74.6482 12.5243C72.9325 12.5243 71.5416 13.8706 71.5416 15.5314C71.5416 17.1922 72.9325 18.5386 74.6482 18.5386ZM74.6482 19.0629C76.6631 19.0629 78.2965 17.4818 78.2965 15.5314C78.2965 13.5811 76.6631 12 74.6482 12C72.6334 12 71 13.5811 71 15.5314C71 17.4818 72.6334 19.0629 74.6482 19.0629Z" fill="#0B1D12"/>
<path d="M74.1314 15.7116V15.3619H74.8044C74.9388 15.3619 75.0427 15.3288 75.1162 15.2626C75.1923 15.1939 75.2303 15.0994 75.2303 14.9792C75.2303 14.8712 75.1935 14.7804 75.12 14.7068C75.0465 14.6332 74.9426 14.5964 74.8082 14.5964H74.1314V14.2283H74.8273C74.9946 14.2283 75.1416 14.2615 75.2683 14.3277C75.3951 14.3915 75.4926 14.4798 75.5611 14.5927C75.6321 14.7031 75.6676 14.8295 75.6676 14.9718C75.6676 15.1215 75.6321 15.2515 75.5611 15.3619C75.4926 15.4724 75.3951 15.5582 75.2683 15.6196C75.1416 15.6809 74.9946 15.7116 74.8273 15.7116H74.1314ZM73.8311 16.8047V14.2283H74.2683V16.8047H73.8311ZM75.2911 16.8047L74.3596 15.6858L74.7664 15.5423L75.8425 16.8047H75.2911Z" fill="#0B1D12"/>
</svg>
