<svg width="69" height="29" viewBox="0 0 69 29" fill="none" xmlns="http://www.w3.org/2000/svg"><path d="M27.84 23.24c-3.936 0-6.12-2.496-6.12-6.432 0-3.816 2.064-6.432 5.976-6.432s5.976 2.664 5.976 6.216c0 .24-.024.456-.048.696h-9.36c.072 2.928 1.464 4.2 3.576 4.2 1.752 0 2.856-.912 3.24-2.328h2.328c-.552 2.52-2.352 4.08-5.568 4.08m-.144-11.112c-1.92 0-3.168 1.152-3.432 3.48h6.864c-.264-2.328-1.512-3.48-3.432-3.48M44.702 23H41.87l-3.168-4.44L35.51 23h-2.808l4.536-6.432-4.296-5.952h2.808l2.952 4.128 2.928-4.128h2.832l-4.296 5.952zm5.148.24c-3.936 0-6.12-2.496-6.12-6.432s2.184-6.432 6.12-6.432 6.12 2.496 6.12 6.432-2.184 6.432-6.12 6.432m0-1.944c2.28 0 3.576-1.488 3.576-4.488 0-2.976-1.296-4.488-3.576-4.488s-3.576 1.512-3.576 4.488c0 3 1.296 4.488 3.576 4.488M67.497 23h-2.544v-7.728c0-1.872-.672-2.832-2.424-2.832-1.848 0-3.048 1.392-3.048 3.648V23h-2.544V10.616h2.424v2.16c.672-1.44 1.872-2.4 3.936-2.4 2.832 0 4.2 1.44 4.2 4.44zM15.5 7l-4 3.5L0 7l11.5 15.5 4-3.5z" fill="#0B1D12"/></svg>