<svg width="73" height="19" viewBox="0 0 73 19" fill="none" xmlns="http://www.w3.org/2000/svg">
<g id="Logo">
<g id="Lukes">
<path d="M11.448 18H0V0.911999H3.264V15.336H11.448V18Z" fill="#EFF4F3"/>
<path d="M16.4895 18.24C13.6575 18.24 12.2655 16.8 12.2655 13.8V5.616H15.3615V13.2C15.3615 14.88 15.9615 15.72 17.4735 15.72C19.1055 15.72 20.1615 14.544 20.1615 12.528V5.616H23.2575V18H20.3055V15.984C19.6335 17.304 18.5295 18.24 16.4895 18.24Z" fill="#EFF4F3"/>
<path d="M37.2197 18H33.6437L30.0197 12.672L28.1237 14.544V18H25.0277V0.911999H28.1237V11.016L33.3797 5.616H36.9797L32.1077 10.512L37.2197 18Z" fill="#EFF4F3"/>
<path d="M42.8713 18.24C38.8393 18.24 36.5833 15.72 36.5833 11.808C36.5833 7.992 38.7433 5.376 42.7273 5.376C46.7353 5.376 48.8953 8.016 48.8953 11.664C48.8953 11.928 48.8713 12.168 48.8473 12.456H39.6793C39.7753 14.976 40.9753 16.128 42.8713 16.128C44.4073 16.128 45.4153 15.36 45.7753 14.088H48.6313C48.1033 16.632 46.2073 18.24 42.8713 18.24ZM42.7273 7.488C41.0233 7.488 39.9433 8.472 39.6793 10.44H45.7993C45.5353 8.472 44.4313 7.488 42.7273 7.488Z" fill="#EFF4F3"/>
<path d="M55.3365 18.24C51.3525 18.24 49.7205 16.536 49.7205 14.088H52.7205C52.8645 15.408 53.4645 16.2 55.3845 16.2C57.2325 16.2 57.8805 15.432 57.8805 14.52C57.8805 13.68 57.2085 13.248 56.1525 13.08L54.0165 12.768C51.1605 12.36 50.0565 11.4 50.0565 9.288C50.0565 7.08 51.5685 5.376 55.3365 5.376C59.1285 5.376 60.6405 7.08 60.6405 9.336H57.6405C57.5205 8.304 57.1365 7.416 55.3125 7.416C53.7525 7.416 53.1525 8.064 53.1525 9.048C53.1525 9.864 53.6325 10.224 54.5205 10.344L56.6325 10.656C59.3685 11.04 60.9765 11.952 60.9765 14.328C60.9765 16.536 59.3445 18.24 55.3365 18.24Z" fill="#EFF4F3"/>
</g>
<path id="&#194;&#174;" d="M67.9672 11C64.9018 11 62.9766 8.96935 62.9766 6C62.9766 3.03065 64.9018 1 67.9672 1C71.0326 1 72.9766 3.03065 72.9766 6C72.9766 8.96935 71.0326 11 67.9672 11ZM67.9672 10.3103C70.584 10.3103 72.1915 8.58621 72.1915 6C72.1915 3.41379 70.584 1.68966 67.9672 1.68966C65.3691 1.68966 63.7616 3.41379 63.7616 6C63.7616 8.58621 65.3691 10.3103 67.9672 10.3103ZM69.9111 4.88889C69.9111 5.54023 69.6308 5.96169 69.0513 6.1341C69.5747 6.2682 69.8551 6.63218 69.8551 7.16858V7.99234C69.8551 8.20307 69.8738 8.37548 69.9111 8.49042H69.1261C69.07 8.35632 69.0139 8.20307 69.0139 7.99234V7.28352C69.0139 6.63218 68.6027 6.44061 68.042 6.44061H67.0887V8.49042H66.2663V3.50958H68.4158C69.3878 3.50958 69.9111 4.02682 69.9111 4.88889ZM69.0887 4.96552C69.0887 4.39081 68.8083 4.18008 68.1167 4.18008H67.0887V5.75096H68.1167C68.8083 5.75096 69.0887 5.54023 69.0887 4.96552Z" fill="white" fill-opacity="0.5"/>
</g>
</svg>
