<svg width="58" height="29" viewBox="0 0 58 29" fill="none" xmlns="http://www.w3.org/2000/svg">
<path d="M22.84 23.24C18.904 23.24 16.72 20.744 16.72 16.808C16.72 12.872 18.904 10.376 22.84 10.376C26.776 10.376 28.96 12.872 28.96 16.808C28.96 20.744 26.776 23.24 22.84 23.24ZM22.84 21.296C25.12 21.296 26.416 19.808 26.416 16.808C26.416 13.832 25.12 12.32 22.84 12.32C20.56 12.32 19.264 13.832 19.264 16.808C19.264 19.808 20.56 21.296 22.84 21.296ZM31.9915 23H29.4475V5.912H31.9915V23ZM36.9128 23.24C34.0328 23.24 32.4728 21.8 32.4728 19.496C32.4728 17.648 33.6008 16.184 36.6728 15.92L39.0728 15.728C40.5368 15.584 40.9688 15.248 40.9688 14.456C40.9688 13.04 40.1528 12.2 38.3528 12.2C36.6728 12.2 35.7608 12.92 35.6408 14.456H33.1448C33.1448 11.96 34.6808 10.376 38.3288 10.376C41.9528 10.376 43.5128 11.96 43.5128 14.456V19.832C43.5128 21.512 43.6568 22.592 43.8968 23H41.6168C41.2328 22.52 41.0888 22.016 41.0888 20.864C40.4168 22.448 39.0488 23.24 36.9128 23.24ZM37.6088 21.488C39.7928 21.488 40.9688 19.784 40.9688 17.744V16.688C40.7048 17.024 40.0328 17.216 39.0728 17.288L37.4888 17.432C35.7128 17.576 35.0168 18.32 35.0168 19.328C35.0168 20.6 35.7848 21.488 37.6088 21.488ZM51.0498 23.24C48.9138 23.24 47.5698 22.304 46.8978 20.72V23H44.4738V5.912H47.0178V12.728C47.7138 11.192 49.0578 10.376 51.0498 10.376C54.3858 10.376 56.4738 12.752 56.4738 16.808C56.4738 20.864 54.3858 23.24 51.0498 23.24ZM50.4738 21.296C52.5138 21.296 53.9298 19.928 53.9298 16.808C53.9298 13.712 52.5138 12.32 50.4738 12.32C48.4098 12.32 47.0178 13.712 47.0178 16.808C47.0178 19.928 48.4098 21.296 50.4738 21.296Z" fill="#0B1D12"/>
<path d="M9.5 23V14.7667V7V8.67705C9.5 13.9238 5.2467 18.177 0 18.177V18.177" stroke="#0B1D12" stroke-width="6" stroke-linejoin="bevel"/>
</svg>
