<svg width="75" height="29" viewBox="0 0 75 29" fill="none" xmlns="http://www.w3.org/2000/svg">
<path d="M28.4371 23H25.3651L20.6611 10.616H23.3011L26.9011 20.744L30.4771 10.616H33.1411L28.4371 23ZM38.0554 23.24C34.1194 23.24 31.9354 20.744 31.9354 16.808C31.9354 12.992 33.9994 10.376 37.9114 10.376C41.8234 10.376 43.8874 13.04 43.8874 16.592C43.8874 16.832 43.8634 17.048 43.8394 17.288H34.4794C34.5514 20.216 35.9434 21.488 38.0554 21.488C39.8074 21.488 40.9114 20.576 41.2954 19.16H43.6234C43.0714 21.68 41.2714 23.24 38.0554 23.24ZM37.9114 12.128C35.9914 12.128 34.7434 13.28 34.4794 15.608H41.3434C41.0794 13.28 39.8314 12.128 37.9114 12.128ZM46.9022 23H44.3582V10.616H46.7822V13.472C47.4302 11.288 48.5342 10.472 50.3342 10.472C50.6702 10.472 51.1502 10.544 51.4622 10.616V12.848L50.2382 12.8C48.2222 12.8 46.9022 14.36 46.9022 17.12V23ZM56.5564 23.24C52.6684 23.24 51.1804 21.536 51.1804 19.16H53.6284C53.7484 20.576 54.3724 21.536 56.5804 21.536C58.7404 21.536 59.3884 20.6 59.3884 19.544C59.3884 18.56 58.6684 18.056 57.4924 17.888L55.2124 17.552C52.6204 17.192 51.5164 16.28 51.5164 14.216C51.5164 12.08 52.8604 10.376 56.5564 10.376C60.2524 10.376 61.5964 12.08 61.5964 14.264H59.1484C59.0284 13.112 58.6444 12.08 56.5324 12.08C54.7324 12.08 54.0604 12.824 54.0604 14.024C54.0604 15.032 54.6364 15.392 55.5964 15.536L57.8764 15.872C60.3964 16.232 61.9324 17.144 61.9324 19.4C61.9324 21.536 60.4444 23.24 56.5564 23.24ZM68.0479 23.24C64.1119 23.24 61.9279 20.744 61.9279 16.808C61.9279 12.992 63.9919 10.376 67.9039 10.376C71.8159 10.376 73.8799 13.04 73.8799 16.592C73.8799 16.832 73.8559 17.048 73.8319 17.288H64.4719C64.5439 20.216 65.9359 21.488 68.0479 21.488C69.7999 21.488 70.9039 20.576 71.2879 19.16H73.6159C73.0639 21.68 71.2639 23.24 68.0479 23.24ZM67.9039 12.128C65.9839 12.128 64.7359 13.28 64.4719 15.608H71.3359C71.0719 13.28 69.8239 12.128 67.9039 12.128Z" fill="#0B1D12"/>
<path fill-rule="evenodd" clip-rule="evenodd" d="M5.14421 9.86382L14.8273 20.8679L10.3725 24.8487L0.689363 13.8446L5.14421 9.86382Z" fill="#0B1D12"/>
<path fill-rule="evenodd" clip-rule="evenodd" d="M16.8148 15.1979L10.6289 19.3227L13.2516 9.77171L16.8148 15.1979Z" fill="#0B1D12"/>
</svg>
